# xmcd CD database file
#
# Track frame offsets:
#	150
#	18053
#	32117
#	45296
#	56823
#	71244
#	88632
#	107589
#	123063
#	140604
#	155696
#	169556
#	189213
#	205111
#	216764
#	238964
#	256813
#	273256
#	285682
#	307068
#	321363
#
# Disc length: 4549 seconds
#
# Revision: 0
# Processed by: cddbd v1.5.2PL0 Copyright (c) Steve Scherf et al.
# Submitted via: ACXtractor (MTCDDB.DLL V2003.12.21)
#
DISCID=2b11c315
DTITLE=Ollie Austin - The Most Requested
DYEAR=2006
DGENRE=Country
TTITLE0=Burgers and Fries
TTITLE1=Lay you Down
TTITLE2=Rake and Ramble Man
TTITLE3=Family Bible
TTITLE4=It Ain't me Babe
TTITLE5=On the Other Hand
TTITLE6=Don't Close Your Eyes
TTITLE7=Rainbows and Roses
TTITLE8=Till Hell Freezes Over
TTITLE9=I'm gonna Do You right Tonight
TTITLE10=Girls Women and Ladies
TTITLE11=Boulder to Birmingham
TTITLE12=New York Joe Redneck Tennessee
TTITLE13=Lucky Old Sun
TTITLE14=Sunday Morning Coming Down
TTITLE15=Storm Never Last
TTITLE16=Wild Flowers in a Masons Jar
TTITLE17=Lay Down Beside Me
TTITLE18=Watermelon Wine
TTITLE19=Only Reason God Made Oklahoma
TTITLE20=Wind Beneath My Wings
EXTD=ID3G:   2 YEAR: 2006
EXTT0=
EXTT1=
EXTT2=
EXTT3=
EXTT4=
EXTT5=
EXTT6=
EXTT7=
EXTT8=
EXTT9=
EXTT10=
EXTT11=
EXTT12=
EXTT13=
EXTT14=
EXTT15=
EXTT16=
EXTT17=
EXTT18=
EXTT19=
EXTT20=
PLAYORDER=
